<svg xmlns="http://www.w3.org/2000/svg" width="234" height="61" viewBox="0 0 234 61"><defs><style>.a{fill:none;}.b{fill:#01012d;}.c{fill:#f1004b;}</style></defs><rect class="a" width="234" height="61"/><g transform="translate(11.445 8.896)"><g transform="translate(0 0)"><path class="b" d="M166.65,103.809a16.583,16.583,0,0,1-.324-33.161c.108,0,.216,0,.324,0a15.549,15.549,0,0,1,15.784,13.464h-8.712a7.392,7.392,0,0,0-7.053-5.339c-4.42,0-7.662,3.6-7.662,8.481s3.235,8.411,7.662,8.411a7.2,7.2,0,0,0,7.06-5.79h8.795A15.646,15.646,0,0,1,166.65,103.81Z" transform="translate(-150.093 -64.83)"/><path class="b" d="M205.552,88.052V102.4h-8.295V89.007c0-2.747-.969-4.148-3.138-4.148-2.51,0-4.075,1.76-4.075,4.819V102.4h-8.294V69.973h8.294v10.17a10.35,10.35,0,0,1,6.428-2.273C202,77.87,205.552,81.882,205.552,88.052Z" transform="translate(-146.257 -64.215)"/><path class="b" d="M233.484,77.647V102h-6.411l-.71-1.723a11.321,11.321,0,0,1-7.265,2.546,12.958,12.958,0,0,1,0-25.909,11.343,11.343,0,0,1,7.356,2.617l.849-1.882ZM225.6,89.842a5.391,5.391,0,1,0-5.389,5.561,5.315,5.315,0,0,0,5.385-5.249q0-.156,0-.313Z" transform="translate(-143.289 -63.841)"/><path class="b" d="M234,77.568h8.292V101.92H234Z" transform="translate(-139.775 -63.738)"/><path class="b" d="M269.037,87.168v14.85h-8.293V88.328c0-2.833-1.053-4.239-3.14-4.239-2.588,0-4.073,1.827-4.073,4.925v13h-8.3V77.665h5.822l1.132,2.511a9.955,9.955,0,0,1,7.579-3.231C265.365,76.945,269.037,80.965,269.037,87.168Z" transform="translate(-138.565 -63.836)"/><path class="b" d="M290.52,97.775H279.458l-1.729,5.126H268.51l12.259-31.57h8.409l12.53,31.57h-9.472Zm-5.549-16.586L281.55,90.97h6.871Z" transform="translate(-135.892 -64.721)"/><path class="b" d="M324.993,82.745A11.179,11.179,0,0,1,314.108,94.2c-.227,0-.452,0-.679-.008h-4.671v8.719h-8.616V71.344h13.287a11.129,11.129,0,0,1,11.556,10.7C325,82.278,325,82.512,324.993,82.745Zm-8.838.02a3.612,3.612,0,0,0-3.373-3.829,3.509,3.509,0,0,0-.382,0h-3.641v7.66H312.4a3.632,3.632,0,0,0,3.754-3.834Z" transform="translate(-132.204 -64.721)"/><path class="b" d="M325.8,71.335h8.712v31.571H325.8Z" transform="translate(-128.495 -64.72)"/><ellipse class="c" cx="5.758" cy="5.823" rx="5.758" ry="5.823" transform="translate(92.615)"/></g></g></svg>