<svg width="162" height="32" viewBox="0 0 162 32" fill="none" xmlns="http://www.w3.org/2000/svg">
<g clip-path="url(#clip0_16870_165914)">
<path d="M13.0045 31.6391C9.57658 31.6228 6.29273 30.2582 3.86272 27.8404C1.4327 25.4225 0.0516998 22.1455 0.018202 18.7177C-0.0152958 15.2899 1.3014 11.9866 3.6837 9.5217C6.066 7.05682 9.32255 5.62836 12.7495 5.54507H13.0045C16.0147 5.47338 18.9456 6.51476 21.2356 8.46975C23.5257 10.4247 25.014 13.1559 25.4155 16.1401H18.5645C18.2166 14.9355 17.4887 13.8758 16.4892 13.1188C15.4897 12.3619 14.2723 11.9484 13.0185 11.9401C9.54252 11.9401 6.99351 14.7711 6.99351 18.6131C6.99351 22.4551 9.53652 25.2321 13.0185 25.2321C14.328 25.232 15.5969 24.7779 16.6091 23.9471C17.6213 23.1164 18.3141 21.9604 18.5695 20.6761H25.4855C25.1513 23.7328 23.6849 26.5536 21.3749 28.5832C19.0649 30.6128 16.0788 31.704 13.0045 31.6421V31.6391Z" fill="white"/>
<path d="M46.6115 19.7241V31.0121H40.0895V20.4741C40.0895 18.3121 39.3275 17.2101 37.6215 17.2101C35.6475 17.2101 34.4215 18.5951 34.4215 21.0021V31.0121H27.9005V5.49707H34.4215V13.4971C35.8556 12.3468 37.6371 11.7162 39.4755 11.7081C43.8165 11.7111 46.6115 14.8681 46.6115 19.7241Z" fill="white"/>
<path d="M70.9045 11.8291V30.9891H65.8635L65.3055 29.6341C63.6936 30.9475 61.6727 31.6551 59.5935 31.6341C56.953 31.5398 54.4522 30.4245 52.6175 28.5232C50.7829 26.6218 49.7576 24.0827 49.7576 21.4406C49.7576 18.7984 50.7829 16.2593 52.6175 14.358C54.4522 12.4566 56.953 11.3414 59.5935 11.2471C61.7046 11.2272 63.7543 11.9572 65.3775 13.3071L66.0455 11.8261L70.9045 11.8291ZM64.7045 21.4291C64.6776 20.5969 64.4063 19.7912 63.9243 19.1123C63.4424 18.4334 62.7712 17.9115 61.9946 17.6116C61.2179 17.3117 60.3701 17.2472 59.557 17.4261C58.7439 17.6049 58.0015 18.0193 57.4223 18.6174C56.8432 19.2155 56.453 19.9709 56.3005 20.7894C56.148 21.6079 56.2398 22.4531 56.5646 23.2197C56.8894 23.9863 57.4327 24.6403 58.1268 25.1001C58.8209 25.5598 59.635 25.805 60.4675 25.8051C61.0168 25.8122 61.5622 25.711 62.0724 25.5073C62.5825 25.3035 63.0476 25.0013 63.4409 24.6177C63.8342 24.2342 64.1481 23.7769 64.3645 23.2719C64.581 22.767 64.6959 22.2244 64.7025 21.6751C64.7025 21.5931 64.7025 21.5111 64.7025 21.4291H64.7045Z" fill="white"/>
<path d="M74.0775 11.8491H80.5985V31.0111H74.0775V11.8491Z" fill="white"/>
<path d="M102.58 19.3261V31.0111H96.0585V20.2371C96.0585 18.0081 95.2305 16.9011 93.5895 16.9011C91.5545 16.9011 90.3895 18.3381 90.3895 20.7761V31.0111H83.8635V11.8481H88.4415L89.3315 13.8241C90.0858 12.9993 91.008 12.3457 92.036 11.9072C93.0641 11.4687 94.1742 11.2556 95.2915 11.2821C99.6925 11.2821 102.58 14.4441 102.58 19.3261Z" fill="white"/>
<path d="M121.575 26.9751H112.875L111.515 31.0091H104.268L113.908 6.16707H120.52L130.372 31.0091H122.924L121.575 26.9751ZM117.212 13.9231L114.522 21.6231H119.922L117.212 13.9231Z" fill="white"/>
<path d="M151.581 15.1491C151.64 17.4794 150.772 19.7381 149.167 21.4287C147.562 23.1193 145.352 24.1035 143.021 24.1651C142.844 24.1651 142.665 24.1651 142.488 24.1591H138.814V31.0201H132.04V6.17708H142.488C143.637 6.13264 144.784 6.31528 145.863 6.71456C146.943 7.11384 147.932 7.72192 148.776 8.50403C149.62 9.28614 150.301 10.2269 150.781 11.2726C151.261 12.3183 151.531 13.4483 151.574 14.5981C151.583 14.7821 151.584 14.9661 151.581 15.1491ZM144.631 15.1641C144.677 14.4131 144.424 13.6742 143.927 13.1093C143.43 12.5445 142.729 12.1999 141.979 12.1511C141.879 12.1456 141.778 12.1456 141.679 12.1511H138.816V18.1791H141.679C142.051 18.1952 142.422 18.1378 142.772 18.0101C143.122 17.8825 143.443 17.6872 143.717 17.4353C143.992 17.1834 144.213 16.8799 144.37 16.5422C144.527 16.2045 144.616 15.8391 144.632 15.4671C144.637 15.3655 144.637 15.2637 144.632 15.1621L144.631 15.1641Z" fill="white"/>
<path d="M155.132 6.17107H161.983V31.0141H155.132V6.17107Z" fill="white"/>
<path d="M77.3385 9.75482C79.6316 9.75482 81.4905 7.87128 81.4905 5.54782C81.4905 3.22436 79.6316 1.34082 77.3385 1.34082C75.0454 1.34082 73.1865 3.22436 73.1865 5.54782C73.1865 7.87128 75.0454 9.75482 77.3385 9.75482Z" stroke="white" stroke-width="0.75"/>
</g>
<defs>
<clipPath id="clip0_16870_165914">
<rect width="162" height="32" fill="white" transform="translate(0 0.000976562)"/>
</clipPath>
</defs>
</svg>
